ply
format ascii 1.0
comment Created by Blender 2.80 (sub 75) - www.blender.org, source file: ''
element vertex 92
property float x
property float y
property float z
property float nx
property float ny
property float nz
property float s
property float t
property uchar red
property uchar green
property uchar blue
property uchar alpha
element face 48
property list uchar uint vertex_indices
end_header
0.250000 1.000034 -0.398244 0.554704 0.832048 -0.000001 0.213453 0.616459 255 255 255 255
0.250000 1.000035 0.526756 0.554704 0.832048 -0.000001 0.268008 0.686578 255 255 255 255
0.400000 0.900034 0.526756 0.554704 0.832048 -0.000001 0.250912 0.698256 255 255 255 255
0.250000 1.000034 -0.398244 0.554700 0.832050 -0.000000 0.213453 0.616459 255 255 255 255
0.400000 0.900034 0.526756 0.554700 0.832050 -0.000000 0.250912 0.698256 255 255 255 255
0.400000 0.900034 -0.398244 0.554700 0.832050 -0.000000 0.203723 0.625365 255 255 255 255
0.500000 0.750035 0.526756 0.832049 0.554703 -0.000000 0.232702 0.708821 255 255 255 255
0.500000 0.750035 -0.398244 0.832049 0.554703 -0.000000 0.191785 0.631364 255 255 255 255
0.400000 0.900034 -0.398244 0.832049 0.554703 -0.000000 0.203723 0.625365 255 255 255 255
0.400000 0.900034 0.526756 0.832049 0.554703 0.000000 0.250912 0.698256 255 255 255 255
0.250000 0.000035 0.601756 0.000000 0.000000 1.000000 0.414729 0.402772 255 255 255 255
0.419349 0.000035 0.601756 0.000000 0.000000 1.000000 0.412405 0.370771 255 255 255 255
0.419160 0.750035 0.601756 0.000000 0.000000 1.000000 0.547192 0.387101 255 255 255 255
0.250000 0.750035 0.601756 -0.000000 0.000000 1.000000 0.544231 0.415240 255 255 255 255
0.500000 0.000035 -0.398244 0.000000 0.000000 -1.000000 0.128449 0.631915 255 255 255 255
0.250000 0.000035 -0.398244 0.000000 0.000000 -1.000000 0.129935 0.606645 255 255 255 255
0.250000 0.750035 -0.398244 0.000000 0.000000 -1.000000 0.194682 0.612016 255 255 255 255
0.500000 0.750035 -0.398244 -0.000000 -0.000000 -1.000000 0.191785 0.631364 255 255 255 255
-0.500000 0.750035 0.601756 0.000000 -1.000000 0.000000 0.546918 0.527761 255 255 255 255
-0.500000 0.750035 0.488429 0.000000 -1.000000 0.000000 0.533072 0.528017 255 255 255 255
0.250000 0.750035 0.488429 0.000000 -1.000000 0.000000 0.528688 0.430694 255 255 255 255
0.250000 0.750035 0.601756 -0.000000 -1.000000 -0.000000 0.544231 0.415240 255 255 255 255
-0.500000 1.000034 -0.398244 0.000000 1.000000 -0.000001 0.233298 0.563864 255 255 255 255
-0.500000 1.000035 0.526756 0.000000 1.000000 -0.000001 0.337860 0.601181 255 255 255 255
0.250000 1.000035 0.526756 0.000000 1.000000 -0.000001 0.268008 0.686578 255 255 255 255
0.250000 1.000034 -0.398244 0.000000 1.000000 -0.000001 0.213453 0.616459 255 255 255 255
0.250000 1.000034 -0.398244 0.000000 0.000000 -1.000000 0.213453 0.616459 255 255 255 255
0.400000 0.900034 -0.398244 -0.000000 -0.000000 -1.000000 0.203723 0.625365 255 255 255 255
0.500000 0.000035 0.526756 1.000000 0.000000 -0.000000 0.140789 0.731054 255 255 255 255
0.500000 0.000035 -0.398244 1.000000 0.000000 -0.000000 0.128449 0.631915 255 255 255 255
0.500000 0.750035 -0.398244 1.000000 0.000000 -0.000000 0.191785 0.631364 255 255 255 255
0.500000 0.750035 0.526756 1.000000 0.000000 0.000000 0.232702 0.708821 255 255 255 255
-0.500000 0.750035 0.601756 0.000000 0.000000 1.000000 0.546918 0.527761 255 255 255 255
0.250000 0.918458 0.601756 0.000000 0.000000 1.000000 0.570955 0.415360 255 255 255 255
-0.500000 0.918365 0.601756 -0.000000 0.000000 1.000000 0.567888 0.527451 255 255 255 255
0.351191 0.851226 0.601756 0.000000 0.000000 1.000000 0.561733 0.399617 255 255 255 255
-0.500000 0.000035 0.488429 0.000000 0.000000 1.000000 0.725566 0.316769 255 255 255 255
0.250000 0.000035 0.488429 0.000000 0.000000 1.000000 0.725566 0.045921 255 255 255 255
0.250000 0.750035 0.488429 0.000000 0.000000 1.000000 0.996413 0.045921 255 255 255 255
-0.500000 0.750035 0.488429 -0.000000 0.000000 1.000000 0.996413 0.316769 255 255 255 255
0.419160 0.750035 0.601756 0.619430 0.412956 0.667663 0.547192 0.387101 255 255 255 255
0.500000 0.750035 0.526756 0.619430 0.412956 0.667663 0.551185 0.368353 255 255 255 255
0.400000 0.900034 0.526756 0.619430 0.412956 0.667663 0.574624 0.388990 255 255 255 255
0.419160 0.750035 0.601756 0.616076 0.413812 0.670232 0.547192 0.387101 255 255 255 255
0.400000 0.900034 0.526756 0.616076 0.413812 0.670232 0.574624 0.388990 255 255 255 255
0.351191 0.851226 0.601756 0.616076 0.413812 0.670232 0.561733 0.399617 255 255 255 255
0.250000 1.000035 0.526756 0.410119 0.617270 0.671402 0.587885 0.414768 255 255 255 255
0.250000 0.918458 0.601756 0.410119 0.617270 0.671402 0.570955 0.415360 255 255 255 255
0.351191 0.851226 0.601756 0.410119 0.617270 0.671402 0.561733 0.399617 255 255 255 255
0.250000 1.000035 0.526756 0.411802 0.617697 0.669977 0.587885 0.414768 255 255 255 255
0.351191 0.851226 0.601756 0.411802 0.617697 0.669977 0.561733 0.399617 255 255 255 255
0.400000 0.900034 0.526756 0.411802 0.617697 0.669977 0.574624 0.388990 255 255 255 255
0.419349 0.000035 0.601756 0.680986 0.000000 0.732296 0.412405 0.370771 255 255 255 255
0.500000 0.000035 0.526756 0.680986 0.000000 0.732296 0.413642 0.349425 255 255 255 255
0.500000 0.750035 0.526756 0.680986 0.000000 0.732296 0.551185 0.368353 255 255 255 255
0.419349 0.000035 0.601756 0.680131 0.000171 0.733091 0.412405 0.370771 255 255 255 255
0.500000 0.750035 0.526756 0.680131 0.000171 0.733091 0.551185 0.368353 255 255 255 255
0.419160 0.750035 0.601756 0.680131 0.000171 0.733091 0.547192 0.387101 255 255 255 255
-0.500000 1.000035 0.526756 -0.000084 0.676390 0.736544 0.584480 0.527353 255 255 255 255
-0.500000 0.918365 0.601756 -0.000084 0.676390 0.736544 0.567888 0.527451 255 255 255 255
0.250000 0.918458 0.601756 -0.000084 0.676390 0.736544 0.570955 0.415360 255 255 255 255
-0.500000 1.000035 0.526756 0.000000 0.676808 0.736160 0.584480 0.527353 255 255 255 255
0.250000 0.918458 0.601756 0.000000 0.676808 0.736160 0.570955 0.415360 255 255 255 255
0.250000 1.000035 0.526756 0.000000 0.676808 0.736160 0.587885 0.414768 255 255 255 255
-0.500000 0.750035 -0.398244 0.000000 0.000000 -1.000000 0.213057 0.556640 255 255 255 255
-0.500000 1.000034 -0.398244 0.000000 0.000000 -1.000000 0.233298 0.563864 255 255 255 255
-0.500000 0.000035 -0.398244 0.000000 0.000000 -1.000000 0.147441 0.533222 255 255 255 255
0.250000 0.750035 0.601756 -1.000000 0.000000 0.000000 0.544231 0.415240 255 255 255 255
0.250000 0.750035 0.488429 -1.000000 0.000000 0.000000 0.528688 0.430694 255 255 255 255
0.250000 0.000035 0.488429 -1.000000 0.000000 0.000000 0.419055 0.425011 255 255 255 255
0.250000 0.000035 0.601756 -1.000000 0.000000 0.000000 0.414729 0.402772 255 255 255 255
-0.500000 1.000035 0.526756 -1.000000 0.000000 0.000000 0.025612 0.051791 255 255 255 255
-0.500000 1.000034 -0.398244 -1.000000 0.000000 0.000000 0.025612 0.051791 255 255 255 255
-0.500000 0.918365 0.601756 -1.000000 0.000000 0.000000 0.025612 0.051791 255 255 255 255
-0.500000 0.750035 0.601756 -1.000000 0.000000 0.000000 0.025612 0.051791 255 255 255 255
-0.500000 0.750035 0.488429 -1.000000 0.000000 0.000000 0.025612 0.051791 255 255 255 255
-0.500000 0.750035 -0.398244 -1.000000 0.000000 0.000000 0.050206 0.116045 255 255 255 255
-0.500000 0.000035 0.488429 -1.000000 0.000000 0.000000 0.109366 0.088356 255 255 255 255
-0.500000 0.000035 -0.398244 -1.000000 0.000000 0.000000 0.042632 0.113342 255 255 255 255
0.250000 0.000035 0.488429 -0.000000 1.000000 0.000000 0.025612 0.051791 255 255 255 255
0.250000 0.000035 -0.398244 -0.000000 1.000000 0.000000 0.025612 0.051791 255 255 255 255
-0.500000 0.000035 0.488429 -0.000000 1.000000 0.000000 0.025612 0.051791 255 255 255 255
-0.500000 0.000035 -0.398244 -0.000000 -1.000000 -0.000000 0.042632 0.113342 255 255 255 255
0.250000 0.000035 -0.398244 -0.000000 -1.000000 -0.000000 0.025612 0.051791 255 255 255 255
-0.500000 0.000035 0.488429 -0.000000 -1.000000 -0.000000 0.109366 0.088356 255 255 255 255
0.500000 0.000035 -0.398244 0.000000 -1.000000 0.000000 0.025612 0.051791 255 255 255 255
0.500000 0.000035 0.526756 0.000000 -1.000000 0.000000 0.025612 0.051791 255 255 255 255
0.419349 0.000035 0.601756 0.000000 -1.000000 -0.000000 0.025612 0.051791 255 255 255 255
0.250000 0.000035 0.601756 0.000000 -1.000000 0.000000 0.073485 0.098284 255 255 255 255
0.250000 0.000035 0.488429 0.000000 -1.000000 0.000000 0.073985 0.100851 255 255 255 255
0.250000 0.000035 0.488429 0.000000 1.000000 -0.000000 0.073985 0.100851 255 255 255 255
0.419349 0.000035 0.601756 0.000000 1.000000 -0.000000 0.025612 0.051791 255 255 255 255
3 0 1 2
3 3 4 5
3 6 7 8
3 6 8 9
3 10 11 12
3 10 12 13
3 14 15 16
3 14 16 17
3 18 19 20
3 18 20 21
3 22 23 24
3 22 24 25
3 17 16 26
3 17 26 27
3 28 29 30
3 28 30 31
3 32 13 33
3 32 33 34
3 13 12 35
3 13 35 33
3 36 37 38
3 36 38 39
3 40 41 42
3 43 44 45
3 46 47 48
3 49 50 51
3 52 53 54
3 55 56 57
3 58 59 60
3 61 62 63
3 16 64 65
3 16 65 26
3 15 66 64
3 15 64 16
3 67 68 69
3 67 69 70
3 71 72 73
3 73 72 74
3 72 75 74
3 72 76 75
3 75 76 77
3 76 78 77
3 79 80 81
3 82 83 84
3 85 86 83
3 83 86 87
3 87 88 89
3 90 91 80
