ply
format ascii 1.0
comment Created by Blender 2.80 (sub 75) - www.blender.org, source file: 'Cube.blend'
element vertex 36
property float x
property float y
property float z
property float nx
property float ny
property float nz
property float s
property float t
element face 16
property list uchar uint vertex_indices
end_header
0.500000 -0.500000 -0.500000 1.000000 -0.000000 0.000000 0.750000 0.500000
0.500000 0.300000 -0.500000 1.000000 -0.000000 0.000000 0.843750 0.500000
0.500000 0.300000 0.500000 1.000000 -0.000000 0.000000 0.843750 0.750000
0.500000 -0.500000 0.500000 1.000000 0.000000 0.000000 0.750000 0.750000
-0.500000 0.500000 0.500000 -0.000000 1.000000 0.000000 0.500000 0.000000
0.300000 0.500000 0.500000 -0.000000 1.000000 0.000000 0.593750 0.000000
0.300000 0.500000 -0.500000 -0.000000 1.000000 0.000000 0.593750 0.250000
-0.500000 0.500000 -0.500000 -0.000000 1.000000 0.000000 0.500000 0.250000
-0.500000 -0.500000 -0.500000 -0.000000 -0.000000 -1.000000 0.500000 0.375000
-0.500000 0.500000 -0.500000 -0.000000 -0.000000 -1.000000 0.500000 0.250000
0.300000 0.500000 -0.500000 -0.000000 -0.000000 -1.000000 0.593750 0.250000
0.300000 0.500000 -0.500000 0.000001 0.000000 -1.000000 0.593750 0.250000
0.500000 0.300000 -0.500000 0.000001 0.000000 -1.000000 0.625000 0.281250
0.500000 -0.500000 -0.500000 0.000001 0.000000 -1.000000 0.625000 0.375000
0.500000 -0.500000 -0.500000 0.000000 -0.000000 -1.000000 0.625000 0.375000
0.500000 0.300000 0.500000 0.707107 0.707106 -0.000000 0.843750 0.750000
0.500000 0.300000 -0.500000 0.707107 0.707106 -0.000000 0.843750 0.500000
0.300000 0.500000 -0.500000 0.707107 0.707106 -0.000000 0.875000 0.500000
0.500000 0.300000 0.500000 0.707106 0.707107 0.000000 0.843750 0.750000
0.300000 0.500000 -0.500000 0.707106 0.707107 0.000000 0.875000 0.500000
0.300000 0.500000 0.500000 0.707106 0.707107 0.000000 0.875000 0.750000
-0.500000 0.500000 0.500000 0.000000 0.000000 1.000000 0.500000 1.000000
-0.500000 -0.500000 0.500000 0.000000 0.000000 1.000000 0.500000 0.875000
0.500000 -0.500000 0.500000 0.000000 0.000000 1.000000 0.625000 0.875000
0.500000 -0.500000 0.500000 0.000001 0.000000 1.000000 0.625000 0.875000
0.500000 0.300000 0.500000 0.000001 0.000000 1.000000 0.625000 0.968750
0.300000 0.500000 0.500000 0.000001 0.000000 1.000000 0.593750 1.000000
0.300000 0.500000 0.500000 -0.000000 -0.000000 1.000000 0.593750 1.000000
0.500000 -0.500000 -0.500000 -0.000000 -1.000000 -0.000000 0.625000 0.375000
0.500000 -0.500000 0.500000 -0.000000 -1.000000 -0.000000 0.625000 0.875000
-0.500000 -0.500000 0.500000 -0.000000 -1.000000 -0.000000 0.500000 0.875000
-0.500000 -0.500000 -0.500000 0.000000 -1.000000 0.000000 0.500000 0.375000
-0.500000 0.500000 -0.500000 -1.000000 0.000000 -0.000000 0.500000 0.250000
-0.500000 -0.500000 -0.500000 -1.000000 0.000000 -0.000000 0.500000 0.375000
-0.500000 -0.500000 0.500000 -1.000000 0.000000 -0.000000 0.500000 0.875000
-0.500000 0.500000 0.500000 -1.000000 0.000000 -0.000000 0.500000 0.000000
3 0 1 2
3 0 2 3
3 4 5 6
3 4 6 7
3 8 9 10
3 11 12 13
3 10 14 8
3 15 16 17
3 18 19 20
3 21 22 23
3 24 25 26
3 23 27 21
3 28 29 30
3 28 30 31
3 32 33 34
3 32 34 35
