ply
format ascii 1.0
comment Created by Blender 2.80 (sub 75) - www.blender.org, source file: ''
element vertex 30
property float x
property float y
property float z
property float nx
property float ny
property float nz
property float s
property float t
element face 16
property list uchar uint vertex_indices
end_header
-0.500000 0.500000 -0.500000 -0.000000 0.000000 -1.000000 0.750000 0.500000
0.300000 0.500000 -0.500000 -0.000000 0.000000 -1.000000 0.843750 0.500000
0.300000 -0.500000 -0.500000 -0.000000 0.000000 -1.000000 0.843750 0.750000
-0.500000 -0.500000 -0.500000 0.000000 0.000000 -1.000000 0.750000 0.750000
0.500000 -0.500000 0.500000 1.000000 0.000000 -0.000000 0.500000 0.000000
0.500000 -0.500000 -0.300000 1.000000 0.000000 -0.000000 0.593750 0.000000
0.500000 0.500000 -0.300000 1.000000 0.000000 -0.000000 0.593750 0.250000
0.500000 0.500000 0.500000 1.000000 0.000000 0.000000 0.500000 0.250000
-0.500000 0.500000 0.500000 -0.000000 1.000000 0.000000 0.500000 0.375000
0.500000 0.500000 0.500000 -0.000000 1.000000 0.000000 0.500000 0.250000
0.500000 0.500000 -0.300000 -0.000000 1.000000 0.000000 0.593750 0.250000
0.300000 0.500000 -0.500000 -0.000000 1.000000 0.000000 0.625000 0.281250
-0.500000 0.500000 -0.500000 -0.000000 1.000000 0.000000 0.625000 0.375000
0.300000 -0.500000 -0.500000 0.707107 0.000000 -0.707107 0.843750 0.750000
0.300000 0.500000 -0.500000 0.707107 0.000000 -0.707107 0.843750 0.500000
0.500000 0.500000 -0.300000 0.707107 0.000000 -0.707107 0.875000 0.500000
0.500000 -0.500000 -0.300000 0.707107 -0.000000 -0.707107 0.875000 0.750000
0.500000 -0.500000 0.500000 0.000000 -1.000000 0.000000 0.500000 1.000000
-0.500000 -0.500000 0.500000 0.000000 -1.000000 0.000000 0.500000 0.875000
-0.500000 -0.500000 -0.500000 0.000000 -1.000000 0.000000 0.625000 0.875000
0.300000 -0.500000 -0.500000 -0.000000 -1.000000 0.000000 0.625000 0.968750
0.500000 -0.500000 -0.300000 -0.000000 -1.000000 0.000000 0.593750 1.000000
-0.500000 0.500000 -0.500000 -1.000000 -0.000000 -0.000000 0.625000 0.375000
-0.500000 -0.500000 -0.500000 -1.000000 -0.000000 -0.000000 0.625000 0.875000
-0.500000 -0.500000 0.500000 -1.000000 -0.000000 -0.000000 0.500000 0.875000
-0.500000 0.500000 0.500000 -1.000000 0.000000 0.000000 0.500000 0.375000
0.500000 0.500000 0.500000 -0.000000 0.000000 1.000000 0.500000 0.250000
-0.500000 0.500000 0.500000 -0.000000 0.000000 1.000000 0.500000 0.375000
-0.500000 -0.500000 0.500000 -0.000000 0.000000 1.000000 0.500000 0.875000
0.500000 -0.500000 0.500000 -0.000000 0.000000 1.000000 0.500000 0.000000
3 0 1 2
3 0 2 3
3 4 5 6
3 4 6 7
3 8 9 10
3 10 11 12
3 10 12 8
3 13 14 15
3 13 15 16
3 17 18 19
3 19 20 21
3 19 21 17
3 22 23 24
3 22 24 25
3 26 27 28
3 26 28 29
